<svg aria-hidden="true" style="width:0;height:0;position:absolute;overflow:hidden" xmlns="http://www.w3.org/2000/svg"><defs><symbol id="icon-band" viewBox="0 0 1013 32"><path fill="#fafafa" style="fill:var(--color1,#fafafa)" opacity=".15" d="M26.667 13.333 0 .604v30.792l26.667-12.729v-5.333zm960 5.334 26.667 12.729V.604l-26.667 12.729v5.333zM24 18.667h965.333v-5.333H24v5.333z"/></symbol><symbol id="icon-linkedin" viewBox="0 0 32 32"><path fill="none" stroke="#fafafa" style="stroke:var(--color1,#fafafa)" stroke-linejoin="round" stroke-linecap="round" stroke-width="1.3" d="M22.218 10.55a6.385 6.385 0 0 1-1.832.893 2.612 2.612 0 0 0-4.584 1.751v.583c-1.025.027-2.041-.201-2.957-.662s-1.898-1.559-2.488-2.398c0 0-2.139 5.667 3.111 8.001a6.792 6.792 0 0 1-4.083 1.167c5.25 2.917 11.667 0 11.667-6.708 0-.162-.016-.325-.047-.484a4.504 4.504 0 0 0 1.213-2.141z"/><path fill="none" stroke="#fafafa" style="stroke:var(--color1,#fafafa)" d="M6 .5h20A5.5 5.5 0 0 1 31.5 6v20a5.5 5.5 0 0 1-5.5 5.5H6A5.5 5.5 0 0 1 .5 26V6A5.5 5.5 0 0 1 6 .5z"/></symbol><symbol id="icon-facebook" viewBox="0 0 32 32"><path fill="#fafafa" style="fill:var(--color1,#fafafa)" d="M18.552 10.49H20V8.105A20.645 20.645 0 0 0 17.89 8c-2.094 0-3.527 1.245-3.527 3.525v1.965h-2.364v2.67h2.364V23h2.833v-6.84h2.356l.354-2.67h-2.71v-1.703c0-.787.216-1.297 1.355-1.297z"/><path fill="none" stroke="#fafafa" style="stroke:var(--color1,#fafafa)" d="M6 .5h20A5.5 5.5 0 0 1 31.5 6v20a5.5 5.5 0 0 1-5.5 5.5H6A5.5 5.5 0 0 1 .5 26V6A5.5 5.5 0 0 1 6 .5z"/></symbol><symbol id="icon-instagram" viewBox="0 0 32 32"><path fill="#fafafa" style="fill:var(--color1,#fafafa)" d="M19.738 11.422a.838.838 0 0 0-.824 1.004.838.838 0 0 0 1.145.612.844.844 0 0 0 .519-.776.839.839 0 0 0-.84-.84zm3.22 1.694a5.314 5.314 0 0 0-.322-1.701 3.46 3.46 0 0 0-.812-1.239 3.29 3.29 0 0 0-1.239-.805 5.098 5.098 0 0 0-1.701-.329C18.142 9 17.904 9 16 9s-2.142 0-2.884.042a5.098 5.098 0 0 0-1.701.329 3.354 3.354 0 0 0-1.239.805 3.29 3.29 0 0 0-.805 1.239 5.098 5.098 0 0 0-.329 1.701C9 13.858 9 14.096 9 16s0 2.142.042 2.884c.012.582.123 1.157.329 1.701.171.469.446.892.805 1.239.348.357.771.632 1.239.805a5.098 5.098 0 0 0 1.701.329c.742.042.98.042 2.884.042s2.142 0 2.884-.042a5.098 5.098 0 0 0 1.701-.329 3.29 3.29 0 0 0 1.239-.805c.359-.348.636-.771.812-1.239.2-.546.308-1.12.322-1.701 0-.742.042-.98.042-2.884s0-2.142-.042-2.884zm-1.26 5.684a3.935 3.935 0 0 1-.238 1.302c-.112.305-.291.58-.525.805-.227.231-.502.41-.805.525a3.935 3.935 0 0 1-1.302.238c-.7.035-.959.042-2.8.042s-2.1 0-2.8-.042a3.993 3.993 0 0 1-1.358-.21 2.283 2.283 0 0 1-.77-.525c-.232-.225-.41-.5-.518-.805a3.868 3.868 0 0 1-.28-1.33c0-.7-.042-.959-.042-2.8s0-2.1.042-2.8c.003-.454.086-.904.245-1.33.123-.296.312-.559.553-.77a2.2 2.2 0 0 1 .77-.56 4.021 4.021 0 0 1 1.33-.238c.7 0 .959-.042 2.8-.042s2.1 0 2.8.042c.444.005.885.086 1.302.238.318.118.604.31.833.56.229.215.409.478.525.77.156.426.236.876.238 1.33.035.7.042.959.042 2.8s-.007 2.1-.042 2.8zM16 12.409a3.596 3.596 0 0 0-3.514 4.296 3.584 3.584 0 0 0 4.897 2.612 3.592 3.592 0 0 0 1.944-4.694 3.58 3.58 0 0 0-3.326-2.215zm0 5.922a2.331 2.331 0 1 1-.001-4.66A2.331 2.331 0 0 1 16 18.33z"/><path fill="none" stroke="#fafafa" style="stroke:var(--color1,#fafafa)" d="M6 .5h20A5.5 5.5 0 0 1 31.5 6v20a5.5 5.5 0 0 1-5.5 5.5H6A5.5 5.5 0 0 1 .5 26V6A5.5 5.5 0 0 1 6 .5z"/></symbol><symbol id="icon-search" viewBox="0 0 32 32"><path fill="none" stroke="#fafafa" style="stroke:var(--color1,#fafafa)" stroke-linejoin="round" stroke-linecap="round" stroke-width="3" d="M14.667 25.333c5.891 0 10.667-4.776 10.667-10.667S20.558 3.999 14.667 3.999 4 8.775 4 14.666s4.776 10.667 10.667 10.667zM27.999 28l-5.8-5.8"/></symbol><symbol id="icon-logo" viewBox="0 0 196 32"><path fill="#ed1d24" style="fill:var(--color2,#ed1d24)" d="M0 1h94v30H0V1z"/><path fill="#fafafa" style="fill:var(--color1,#fafafa)" d="M4 26.972V7.029h4.431l1.606 10.256 1.578-10.256h4.514v19.972h-3.6v-9.63l-1.578 9.601H9.096l-1.578-9.516v9.516H4.001zM23.941 7.028l2.935 19.943h-3.517l-.388-3.077h-2.714l-.415 3.077h-3.461l2.908-19.943h4.652zm-1.329 13.676-.997-8.376-.941 8.376h1.938zM30.975 7.028c.646 0 1.255.104 1.828.313a4.226 4.226 0 0 1 1.578.997c.461.437.84 1.007 1.135 1.709.314.703.517 1.557.609 2.564.129 1.235.092 2.27-.111 3.105-.185.817-.415 1.472-.692 1.966-.314.608-.692 1.083-1.135 1.424l2.298 7.863H32.94l-1.689-6.695-.775.142v6.553h-3.489l.028-19.943h3.96zm-.498 9.858c.425-.038.775-.142 1.052-.313.277-.19.508-.427.692-.712s.314-.608.388-.969c.074-.361.111-.731.111-1.111 0-.399-.037-.788-.111-1.168a3.528 3.528 0 0 0-.36-1.054 1.964 1.964 0 0 0-.692-.769c-.277-.19-.637-.285-1.08-.285v6.382zM39.136 7.028l1.551 12.023 1.634-12.023h3.489l-3.074 19.943h-4.098L35.537 7.028h3.6zM46.029 26.972V7.029h6.507v3.533h-2.935v4.501h2.963v3.704h-3.129v4.501h3.157v3.704h-6.563zM57.114 7v16.382h2.991V27h-6.424V7.028L57.115 7zM60.955 17c0-1.5.129-2.858.388-4.074.258-1.235.618-2.289 1.08-3.162s1.025-1.548 1.689-2.023 1.394-.712 2.188-.712a3.56 3.56 0 0 1 2.16.712c.665.475 1.228 1.149 1.689 2.023s.821 1.928 1.08 3.162c.259 1.216.388 2.574.388 4.074s-.129 2.868-.388 4.103c-.258 1.216-.618 2.26-1.08 3.134s-1.025 1.548-1.689 2.023c-.646.475-1.366.712-2.16.712s-1.523-.238-2.188-.712c-.665-.475-1.228-1.149-1.689-2.023s-.822-1.918-1.08-3.134c-.258-1.235-.388-2.602-.388-4.103zm3.434.057c0 .95.046 1.814.139 2.593s.221 1.453.388 2.023c.166.551.36.978.582 1.282.24.304.498.456.775.456s.526-.152.748-.456c.24-.304.434-.731.581-1.282.166-.57.295-1.244.388-2.023s.138-1.643.138-2.593-.046-1.814-.138-2.593c-.092-.798-.222-1.472-.388-2.023-.148-.551-.341-.978-.581-1.282-.222-.304-.471-.456-.748-.456s-.535.152-.775.456c-.222.304-.415.731-.582 1.282s-.295 1.225-.388 2.023a22.217 22.217 0 0 0-.139 2.593zM83.025 17.114c0 .665-.009 1.377-.028 2.137 0 .741-.046 1.481-.138 2.222-.074.722-.212 1.415-.415 2.08s-.508 1.253-.914 1.766c-.388.494-.895.893-1.523 1.197s-1.403.456-2.326.456c-1.274 0-2.271-.228-2.991-.684-.702-.456-1.228-1.102-1.578-1.937-.332-.855-.535-1.88-.609-3.077a87.47 87.47 0 0 1-.083-3.989V7h3.406v10.114c.019 1.178.092 2.222.222 3.134.055.399.129.788.222 1.168.092.361.203.693.332.997.148.285.305.522.471.712a.879.879 0 0 0 .609.256.982.982 0 0 0 .692-.256c.203-.19.369-.427.498-.712.148-.304.258-.636.332-.997.092-.38.166-.769.222-1.168.111-.912.157-1.956.138-3.134V7.029h3.461v10.085zM91.862 7.028c.018 0 .028.19.028.57v1.197c0 .532-.009 1.13-.028 1.795-.572 0-1.154.057-1.745.171a5.534 5.534 0 0 0-1.551.484 3.771 3.771 0 0 0-1.108.769 1.517 1.517 0 0 0-.415 1.054c0 .342.12.636.36.883.258.247.563.494.914.741.369.247.766.522 1.191.826.443.285.84.627 1.191 1.026.369.399.674.883.914 1.453.258.57.388 1.263.388 2.08 0 1.215-.222 2.26-.665 3.134a5.954 5.954 0 0 1-1.772 2.137c-.739.551-1.606.959-2.603 1.225s-2.049.399-3.157.399v-3.561c.332 0 .766-.057 1.302-.171s1.052-.304 1.551-.57c.517-.266.96-.617 1.329-1.054s.545-.978.526-1.624c0-.323-.12-.598-.36-.826a4.748 4.748 0 0 0-.914-.712 41.4 41.4 0 0 0-1.135-.769 7.308 7.308 0 0 1-1.163-1.026 5.773 5.773 0 0 1-.886-1.481c-.222-.57-.332-1.273-.332-2.108 0-.874.24-1.681.72-2.422.498-.741 1.135-1.377 1.911-1.909s1.643-.95 2.603-1.254a9.76 9.76 0 0 1 2.908-.456zM107.409 7.028l2.877 19.943h-3.447l-.38-3.077h-2.66l-.407 3.077H100l2.85-19.943h4.559zm-1.303 13.676-.977-8.376-.923 8.376h1.9zM113.624 7c.868 0 1.619.171 2.253.513s1.176.798 1.628 1.368a7.48 7.48 0 0 1 1.113 1.994c.289.741.516 1.51.678 2.308s.271 1.605.326 2.422c.072.798.109 1.538.109 2.222 0 1.519-.154 2.802-.461 3.846-.289 1.045-.669 1.899-1.14 2.564-.452.665-.932 1.187-1.438 1.567a5.907 5.907 0 0 1-3.067 1.14h-3.338l.054-19.943h3.284zm.054 16.923.19-.028c.127-.019.29-.085.489-.199.217-.133.443-.332.678-.598.253-.266.479-.646.678-1.14.217-.494.389-1.111.516-1.852.145-.76.217-1.69.217-2.792 0-.285-.009-.655-.027-1.111s-.063-.94-.136-1.453c-.054-.513-.145-1.026-.271-1.538s-.299-.978-.516-1.396a2.783 2.783 0 0 0-.76-.997 1.642 1.642 0 0 0-1.113-.399l.054 13.504zM124.129 7.028l1.52 12.023 1.601-12.023h3.419l-3.012 19.943h-4.017l-3.039-19.943h3.528zM130.884 26.972V7.029h6.378v3.533h-2.877v4.501h2.904v3.704h-3.067v4.501h3.094v3.704h-6.432zM138.356 26.972V7.029h3.392l2.904 10.313V7.029h3.474v19.943h-3.474l-2.931-9.516V27l-3.365-.028zM159.57 7.028v3.618h-3.419v16.325h-3.338V10.646h-3.664V7.028h10.421zM171.382 17.114c0 .665-.009 1.377-.027 2.137 0 .741-.045 1.481-.136 2.222-.072.722-.208 1.415-.407 2.08s-.498 1.253-.896 1.766c-.38.494-.877.893-1.493 1.197s-1.375.456-2.28.456c-1.248 0-2.225-.228-2.931-.684-.688-.456-1.203-1.102-1.547-1.937-.326-.855-.525-1.88-.597-3.077a89.137 89.137 0 0 1-.081-3.989V7h3.338v10.114a26.01 26.01 0 0 0 .217 3.134c.054.399.127.788.217 1.168.091.361.199.693.326.997.145.285.298.522.461.712.181.171.38.256.597.256a.951.951 0 0 0 .678-.256c.199-.19.362-.427.489-.712.145-.304.253-.636.326-.997.09-.38.163-.769.217-1.168.108-.912.154-1.956.136-3.134V7.029h3.392v10.085zM176.08 7.028c.633 0 1.23.104 1.791.313a4.136 4.136 0 0 1 1.547.997c.452.437.823 1.007 1.113 1.709.308.703.507 1.557.597 2.564.127 1.235.09 2.27-.109 3.105-.181.817-.407 1.472-.678 1.966-.308.608-.678 1.083-1.113 1.424l2.252 7.863h-3.474l-1.656-6.695-.76.142v6.553h-3.419l.027-19.943h3.881zm-.488 9.858c.416-.038.76-.142 1.031-.313.271-.19.498-.427.679-.712s.307-.608.38-.969.109-.731.109-1.111c0-.399-.036-.788-.109-1.168a3.552 3.552 0 0 0-.353-1.054 1.954 1.954 0 0 0-.678-.769c-.271-.19-.624-.285-1.058-.285v6.382z"/><path fill="#fafafa" style="fill:var(--color1,#fafafa)" d="M180.55 26.972V7.029h6.378v3.533h-2.877v4.501h2.904v3.704h-3.067v4.501h3.094v3.704h-6.432zM195.864 7.028c.018 0 .027.19.027.57v1.197c0 .532-.009 1.13-.027 1.795-.561 0-1.131.057-1.71.171a5.343 5.343 0 0 0-1.52.484 3.698 3.698 0 0 0-1.086.769 1.536 1.536 0 0 0-.407 1.054c0 .342.118.636.353.883.253.247.552.494.896.741.362.247.751.522 1.167.826.434.285.823.627 1.167 1.026.362.399.66.883.896 1.453.253.57.38 1.263.38 2.08 0 1.215-.217 2.26-.651 3.134a5.923 5.923 0 0 1-1.737 2.137c-.724.551-1.574.959-2.551 1.225s-2.008.399-3.094.399v-3.561c.326 0 .751-.057 1.275-.171s1.031-.304 1.52-.57c.507-.266.941-.617 1.303-1.054s.534-.978.516-1.624c0-.323-.118-.598-.353-.826a4.653 4.653 0 0 0-.896-.712 40.461 40.461 0 0 0-1.113-.769 7.222 7.222 0 0 1-1.14-1.026 5.79 5.79 0 0 1-.868-1.481c-.217-.57-.326-1.273-.326-2.108 0-.874.235-1.681.706-2.422.488-.741 1.113-1.377 1.873-1.909s1.61-.95 2.551-1.254a9.392 9.392 0 0 1 2.85-.456zM194 3h-92V1h92v2zM194 31h-92v-2h92v2z"/></symbol></defs></svg>