<svg aria-hidden="true" style="position: absolute; width: 0; height: 0; overflow: hidden;" version="1.1"
    xmlns="http://www.w3.org/2000/svg" xmlns:xlink="http://www.w3.org/1999/xlink">
    <defs>
        <symbol id="icon-Vector" viewBox="0 0 48 32">
            <path fill="#fafafa" style="fill: var(--color1, #fafafa)"
                d="M47.618 16.869l-15.566 14.771c-0.506 0.48-1.328 0.48-1.834 0s-0.506-1.261 0-1.741l13.351-12.669h-42.271c-0.716 0-1.297-0.551-1.297-1.231s0.581-1.231 1.297-1.231l42.271 0-13.351-12.669c-0.506-0.48-0.506-1.26 0-1.741 0.254-0.241 0.586-0.359 0.918-0.359s0.664 0.121 0.918 0.359l15.566 14.771c0.506 0.48 0.506 1.26 0 1.741l-0.003-0.002z">
            </path>
        </symbol>
        <symbol id="icon-band" viewBox="0 0 1013 32">
            <path fill="#fafafa" style="fill: var(--color1, #fafafa)" opacity="0.15"
                d="M26.667 13.333l-26.667-12.729v30.792l26.667-12.729v-5.333zM986.667 18.667l26.667 12.729v-30.792l-26.667 12.729v5.333zM24 18.667h965.333v-5.333h-965.333v5.333z">
            </path>
        </symbol>
        <symbol id="icon-linkedin" viewBox="0 0 32 32">
            <path fill="none" stroke="#fafafa" style="stroke: var(--color1, #fafafa)" stroke-linejoin="round"
                stroke-linecap="round" stroke-miterlimit="4" stroke-width="1.3"
                d="M22.218 10.55c-0.559 0.394-1.177 0.695-1.832 0.893-0.351-0.404-0.818-0.69-1.337-0.82s-1.066-0.097-1.566 0.094c-0.5 0.191-0.93 0.531-1.23 0.974s-0.458 0.968-0.451 1.503v0.583c-1.025 0.027-2.041-0.201-2.957-0.662s-1.898-1.559-2.488-2.398c0 0-2.139 5.667 3.111 8.001-1.201 0.816-2.633 1.224-4.083 1.167 5.25 2.917 11.667 0 11.667-6.708-0-0.162-0.016-0.325-0.047-0.484 0.595-0.587 1.015-1.328 1.213-2.141z">
            </path>
            <path fill="none" stroke="#fafafa" style="stroke: var(--color1, #fafafa)" stroke-linejoin="miter"
                stroke-linecap="butt" stroke-miterlimit="4" stroke-width="1"
                d="M6 0.5h20c3.038 0 5.5 2.462 5.5 5.5v20c0 3.038-2.462 5.5-5.5 5.5h-20c-3.038 0-5.5-2.462-5.5-5.5v-20c0-3.038 2.462-5.5 5.5-5.5z">
            </path>
        </symbol>
        <symbol id="icon-facebook" viewBox="0 0 32 32">
            <path fill="#fafafa" style="fill: var(--color1, #fafafa)"
                d="M18.552 10.49h1.448v-2.385c-0.701-0.071-1.405-0.106-2.11-0.105-2.094 0-3.527 1.245-3.527 3.525v1.965h-2.364v2.67h2.364v6.84h2.833v-6.84h2.356l0.354-2.67h-2.71v-1.703c0-0.787 0.216-1.297 1.355-1.297z">
            </path>
            <path fill="none" stroke="#fafafa" style="stroke: var(--color1, #fafafa)" stroke-linejoin="miter"
                stroke-linecap="butt" stroke-miterlimit="4" stroke-width="1"
                d="M6 0.5h20c3.038 0 5.5 2.462 5.5 5.5v20c0 3.038-2.462 5.5-5.5 5.5h-20c-3.038 0-5.5-2.462-5.5-5.5v-20c0-3.038 2.462-5.5 5.5-5.5z">
            </path>
        </symbol>
        <symbol id="icon-instagram" viewBox="0 0 32 32">
            <path fill="#fafafa" style="fill: var(--color1, #fafafa)"
                d="M19.738 11.422c-0.166 0-0.328 0.049-0.467 0.142s-0.246 0.223-0.309 0.377c-0.064 0.153-0.080 0.322-0.048 0.485s0.113 0.313 0.23 0.43c0.117 0.117 0.267 0.197 0.43 0.23s0.332 0.016 0.485-0.048c0.153-0.064 0.285-0.171 0.377-0.309s0.142-0.301 0.142-0.467c0-0.223-0.088-0.436-0.246-0.594s-0.371-0.246-0.594-0.246zM22.958 13.116c-0.014-0.581-0.122-1.155-0.322-1.701-0.178-0.467-0.455-0.889-0.812-1.239-0.347-0.359-0.77-0.634-1.239-0.805-0.544-0.206-1.119-0.317-1.701-0.329-0.742-0.042-0.98-0.042-2.884-0.042s-2.142 0-2.884 0.042c-0.582 0.012-1.157 0.123-1.701 0.329-0.468 0.173-0.891 0.448-1.239 0.805-0.359 0.347-0.634 0.77-0.805 1.239-0.206 0.544-0.317 1.119-0.329 1.701-0.042 0.742-0.042 0.98-0.042 2.884s0 2.142 0.042 2.884c0.012 0.582 0.123 1.157 0.329 1.701 0.171 0.469 0.446 0.892 0.805 1.239 0.348 0.357 0.771 0.632 1.239 0.805 0.544 0.206 1.119 0.317 1.701 0.329 0.742 0.042 0.98 0.042 2.884 0.042s2.142 0 2.884-0.042c0.582-0.012 1.157-0.123 1.701-0.329 0.469-0.171 0.892-0.446 1.239-0.805 0.359-0.348 0.636-0.771 0.812-1.239 0.2-0.546 0.308-1.12 0.322-1.701 0-0.742 0.042-0.98 0.042-2.884s0-2.142-0.042-2.884zM21.698 18.8c-0.005 0.444-0.086 0.885-0.238 1.302-0.112 0.305-0.291 0.58-0.525 0.805-0.227 0.231-0.502 0.41-0.805 0.525-0.417 0.152-0.858 0.233-1.302 0.238-0.7 0.035-0.959 0.042-2.8 0.042s-2.1 0-2.8-0.042c-0.461 0.009-0.921-0.062-1.358-0.21-0.29-0.12-0.552-0.299-0.77-0.525-0.232-0.225-0.41-0.5-0.518-0.805-0.171-0.423-0.266-0.874-0.28-1.33 0-0.7-0.042-0.959-0.042-2.8s0-2.1 0.042-2.8c0.003-0.454 0.086-0.904 0.245-1.33 0.123-0.296 0.312-0.559 0.553-0.77 0.213-0.241 0.476-0.432 0.77-0.56 0.427-0.154 0.876-0.234 1.33-0.238 0.7 0 0.959-0.042 2.8-0.042s2.1 0 2.8 0.042c0.444 0.005 0.885 0.086 1.302 0.238 0.318 0.118 0.604 0.31 0.833 0.56 0.229 0.215 0.409 0.478 0.525 0.77 0.156 0.426 0.236 0.876 0.238 1.33 0.035 0.7 0.042 0.959 0.042 2.8s-0.007 2.1-0.042 2.8zM16 12.409c-0.71 0.001-1.403 0.213-1.993 0.609s-1.049 0.957-1.32 1.613c-0.271 0.656-0.341 1.378-0.201 2.074s0.482 1.335 0.984 1.837c0.502 0.502 1.142 0.843 1.839 0.981s1.418 0.067 2.074-0.206c0.656-0.272 1.216-0.732 1.611-1.323s0.605-1.284 0.605-1.994c0.001-0.472-0.092-0.94-0.272-1.377s-0.446-0.833-0.78-1.167c-0.334-0.334-0.731-0.598-1.168-0.778s-0.905-0.271-1.378-0.27zM16 18.331c-0.461 0-0.912-0.137-1.295-0.393s-0.682-0.62-0.859-1.046c-0.176-0.426-0.223-0.895-0.133-1.347s0.312-0.867 0.638-1.194 0.741-0.548 1.194-0.638c0.452-0.090 0.921-0.044 1.347 0.133s0.79 0.475 1.046 0.859c0.256 0.383 0.393 0.834 0.393 1.295 0 0.306-0.060 0.609-0.177 0.892s-0.289 0.54-0.505 0.756c-0.216 0.216-0.474 0.388-0.756 0.505s-0.586 0.177-0.892 0.177z">
            </path>
            <path fill="none" stroke="#fafafa" style="stroke: var(--color1, #fafafa)" stroke-linejoin="miter"
                stroke-linecap="butt" stroke-miterlimit="4" stroke-width="1"
                d="M6 0.5h20c3.038 0 5.5 2.462 5.5 5.5v20c0 3.038-2.462 5.5-5.5 5.5h-20c-3.038 0-5.5-2.462-5.5-5.5v-20c0-3.038 2.462-5.5 5.5-5.5z">
            </path>
        </symbol>
        <symbol id="icon-search" viewBox="0 0 32 32">
            <path fill="none" stroke="#fafafa" style="stroke: var(--color1, #fafafa)" stroke-linejoin="round"
                stroke-linecap="round" stroke-miterlimit="4" stroke-width="3"
                d="M14.667 25.333c5.891 0 10.667-4.776 10.667-10.667s-4.776-10.667-10.667-10.667c-5.891 0-10.667 4.776-10.667 10.667s4.776 10.667 10.667 10.667z">
            </path>
            <path fill="none" stroke="#fafafa" style="stroke: var(--color1, #fafafa)" stroke-linejoin="round"
                stroke-linecap="round" stroke-miterlimit="4" stroke-width="3" d="M27.999 28l-5.8-5.8"></path>
        </symbol>
        <symbol id="icon-logo" viewBox="0 0 196 32">
            <path fill="#ed1d24" style="fill: var(--color2, #ed1d24)" d="M0 1h94v30h-94v-30z"></path>
            <path fill="#fafafa" style="fill: var(--color1, #fafafa)"
                d="M4 26.972v-19.943h4.431l1.606 10.256 1.578-10.256h4.514v19.972h-3.6v-9.63l-1.578 9.601h-1.855l-1.578-9.516v9.516h-3.517z">
            </path>
            <path fill="#fafafa" style="fill: var(--color1, #fafafa)"
                d="M23.941 7.028l2.935 19.943h-3.517l-0.388-3.077h-2.714l-0.415 3.077h-3.461l2.908-19.943h4.652zM22.612 20.704l-0.997-8.376-0.941 8.376h1.938z">
            </path>
            <path fill="#fafafa" style="fill: var(--color1, #fafafa)"
                d="M30.975 7.028c0.646 0 1.255 0.104 1.828 0.313 0.591 0.209 1.117 0.541 1.578 0.997 0.461 0.437 0.84 1.007 1.135 1.709 0.314 0.703 0.517 1.557 0.609 2.564 0.129 1.235 0.092 2.27-0.111 3.105-0.185 0.817-0.415 1.472-0.692 1.966-0.314 0.608-0.692 1.083-1.135 1.424l2.298 7.863h-3.545l-1.689-6.695-0.775 0.142v6.553h-3.489l0.028-19.943h3.96zM30.477 16.886c0.425-0.038 0.775-0.142 1.052-0.313 0.277-0.19 0.508-0.427 0.692-0.712s0.314-0.608 0.388-0.969c0.074-0.361 0.111-0.731 0.111-1.111 0-0.399-0.037-0.788-0.111-1.168-0.074-0.399-0.194-0.75-0.36-1.054-0.166-0.323-0.397-0.579-0.692-0.769-0.277-0.19-0.637-0.285-1.080-0.285v6.382z">
            </path>
            <path fill="#fafafa" style="fill: var(--color1, #fafafa)"
                d="M39.136 7.028l1.551 12.023 1.634-12.023h3.489l-3.074 19.943h-4.098l-3.101-19.943h3.6z"></path>
            <path fill="#fafafa" style="fill: var(--color1, #fafafa)"
                d="M46.029 26.972v-19.943h6.507v3.533h-2.935v4.501h2.963v3.704h-3.129v4.501h3.157v3.704h-6.563z"></path>
            <path fill="#fafafa" style="fill: var(--color1, #fafafa)"
                d="M57.114 7v16.382h2.991v3.618h-6.424v-19.972l3.434-0.028z"></path>
            <path fill="#fafafa" style="fill: var(--color1, #fafafa)"
                d="M60.955 17c0-1.5 0.129-2.858 0.388-4.074 0.258-1.235 0.618-2.289 1.080-3.162s1.025-1.548 1.689-2.023 1.394-0.712 2.188-0.712c0.794 0 1.514 0.237 2.16 0.712 0.665 0.475 1.228 1.149 1.689 2.023s0.821 1.928 1.080 3.162c0.259 1.216 0.388 2.574 0.388 4.074s-0.129 2.868-0.388 4.103c-0.258 1.216-0.618 2.26-1.080 3.134s-1.025 1.548-1.689 2.023c-0.646 0.475-1.366 0.712-2.16 0.712s-1.523-0.238-2.188-0.712c-0.665-0.475-1.228-1.149-1.689-2.023s-0.822-1.918-1.080-3.134c-0.258-1.235-0.388-2.602-0.388-4.103zM64.389 17.057c0 0.95 0.046 1.814 0.139 2.593s0.221 1.453 0.388 2.023c0.166 0.551 0.36 0.978 0.582 1.282 0.24 0.304 0.498 0.456 0.775 0.456s0.526-0.152 0.748-0.456c0.24-0.304 0.434-0.731 0.581-1.282 0.166-0.57 0.295-1.244 0.388-2.023s0.138-1.643 0.138-2.593-0.046-1.814-0.138-2.593c-0.092-0.798-0.222-1.472-0.388-2.023-0.148-0.551-0.341-0.978-0.581-1.282-0.222-0.304-0.471-0.456-0.748-0.456s-0.535 0.152-0.775 0.456c-0.222 0.304-0.415 0.731-0.582 1.282s-0.295 1.225-0.388 2.023c-0.092 0.779-0.139 1.643-0.139 2.593z">
            </path>
            <path fill="#fafafa" style="fill: var(--color1, #fafafa)"
                d="M83.025 17.114c0 0.665-0.009 1.377-0.028 2.137 0 0.741-0.046 1.481-0.138 2.222-0.074 0.722-0.212 1.415-0.415 2.080s-0.508 1.253-0.914 1.766c-0.388 0.494-0.895 0.893-1.523 1.197s-1.403 0.456-2.326 0.456c-1.274 0-2.271-0.228-2.991-0.684-0.702-0.456-1.228-1.102-1.578-1.937-0.332-0.855-0.535-1.88-0.609-3.077-0.055-1.197-0.083-2.526-0.083-3.989v-10.285h3.406v10.114c0.019 1.178 0.092 2.222 0.222 3.134 0.055 0.399 0.129 0.788 0.222 1.168 0.092 0.361 0.203 0.693 0.332 0.997 0.148 0.285 0.305 0.522 0.471 0.712 0.185 0.171 0.388 0.256 0.609 0.256 0.277 0 0.508-0.086 0.692-0.256 0.203-0.19 0.369-0.427 0.498-0.712 0.148-0.304 0.258-0.636 0.332-0.997 0.092-0.38 0.166-0.769 0.222-1.168 0.111-0.912 0.157-1.956 0.138-3.134v-10.085h3.461v10.085z">
            </path>
            <path fill="#fafafa" style="fill: var(--color1, #fafafa)"
                d="M91.862 7.028c0.018 0 0.028 0.19 0.028 0.57 0 0.361 0 0.76 0 1.197 0 0.532-0.009 1.13-0.028 1.795-0.572 0-1.154 0.057-1.745 0.171-0.572 0.095-1.089 0.256-1.551 0.484-0.443 0.209-0.812 0.465-1.108 0.769-0.277 0.304-0.415 0.655-0.415 1.054 0 0.342 0.12 0.636 0.36 0.883 0.258 0.247 0.563 0.494 0.914 0.741 0.369 0.247 0.766 0.522 1.191 0.826 0.443 0.285 0.84 0.627 1.191 1.026 0.369 0.399 0.674 0.883 0.914 1.453 0.258 0.57 0.388 1.263 0.388 2.080 0 1.215-0.222 2.26-0.665 3.134-0.425 0.855-1.015 1.567-1.772 2.137-0.739 0.551-1.606 0.959-2.603 1.225s-2.049 0.399-3.157 0.399v-3.561c0.332 0 0.766-0.057 1.302-0.171s1.052-0.304 1.551-0.57c0.517-0.266 0.96-0.617 1.329-1.054s0.545-0.978 0.526-1.624c0-0.323-0.12-0.598-0.36-0.826-0.24-0.247-0.545-0.484-0.914-0.712-0.351-0.247-0.729-0.503-1.135-0.769-0.406-0.285-0.794-0.627-1.163-1.026-0.351-0.418-0.646-0.912-0.886-1.481-0.222-0.57-0.332-1.273-0.332-2.108 0-0.874 0.24-1.681 0.72-2.422 0.498-0.741 1.135-1.377 1.911-1.909s1.643-0.95 2.603-1.254c0.978-0.304 1.948-0.456 2.908-0.456z">
            </path>
            <path fill="#fafafa" style="fill: var(--color1, #fafafa)"
                d="M107.409 7.028l2.877 19.943h-3.447l-0.38-3.077h-2.66l-0.407 3.077h-3.392l2.85-19.943h4.559zM106.106 20.704l-0.977-8.376-0.923 8.376h1.9z">
            </path>
            <path fill="#fafafa" style="fill: var(--color1, #fafafa)"
                d="M113.624 7c0.868 0 1.619 0.171 2.253 0.513s1.176 0.798 1.628 1.368c0.452 0.57 0.823 1.235 1.113 1.994 0.289 0.741 0.516 1.51 0.678 2.308s0.271 1.605 0.326 2.422c0.072 0.798 0.109 1.538 0.109 2.222 0 1.519-0.154 2.802-0.461 3.846-0.289 1.045-0.669 1.899-1.14 2.564-0.452 0.665-0.932 1.187-1.438 1.567-0.905 0.665-1.927 1.045-3.067 1.14h-3.338l0.054-19.943h3.284zM113.678 23.923c0 0 0.063-0.009 0.19-0.028s0.29-0.085 0.489-0.199c0.217-0.133 0.443-0.332 0.678-0.598 0.253-0.266 0.479-0.646 0.678-1.14 0.217-0.494 0.389-1.111 0.516-1.852 0.145-0.76 0.217-1.69 0.217-2.792 0-0.285-0.009-0.655-0.027-1.111s-0.063-0.94-0.136-1.453c-0.054-0.513-0.145-1.026-0.271-1.538s-0.299-0.978-0.516-1.396c-0.199-0.418-0.452-0.75-0.76-0.997-0.307-0.266-0.678-0.399-1.113-0.399l0.054 13.504z">
            </path>
            <path fill="#fafafa" style="fill: var(--color1, #fafafa)"
                d="M124.129 7.028l1.52 12.023 1.601-12.023h3.419l-3.012 19.943h-4.017l-3.039-19.943h3.528z"></path>
            <path fill="#fafafa" style="fill: var(--color1, #fafafa)"
                d="M130.884 26.972v-19.943h6.378v3.533h-2.877v4.501h2.904v3.704h-3.067v4.501h3.094v3.704h-6.432z">
            </path>
            <path fill="#fafafa" style="fill: var(--color1, #fafafa)"
                d="M138.356 26.972v-19.943h3.392l2.904 10.313v-10.313h3.474v19.943h-3.474l-2.931-9.516v9.544l-3.365-0.028z">
            </path>
            <path fill="#fafafa" style="fill: var(--color1, #fafafa)"
                d="M159.57 7.028v3.618h-3.419v16.325h-3.338v-16.325h-3.664v-3.618h10.421z"></path>
            <path fill="#fafafa" style="fill: var(--color1, #fafafa)"
                d="M171.382 17.114c0 0.665-0.009 1.377-0.027 2.137 0 0.741-0.045 1.481-0.136 2.222-0.072 0.722-0.208 1.415-0.407 2.080s-0.498 1.253-0.896 1.766c-0.38 0.494-0.877 0.893-1.493 1.197s-1.375 0.456-2.28 0.456c-1.248 0-2.225-0.228-2.931-0.684-0.688-0.456-1.203-1.102-1.547-1.937-0.326-0.855-0.525-1.88-0.597-3.077-0.054-1.197-0.081-2.526-0.081-3.989v-10.285h3.338v10.114c0.018 1.178 0.091 2.222 0.217 3.134 0.054 0.399 0.127 0.788 0.217 1.168 0.091 0.361 0.199 0.693 0.326 0.997 0.145 0.285 0.298 0.522 0.461 0.712 0.181 0.171 0.38 0.256 0.597 0.256 0.271 0 0.498-0.086 0.678-0.256 0.199-0.19 0.362-0.427 0.489-0.712 0.145-0.304 0.253-0.636 0.326-0.997 0.090-0.38 0.163-0.769 0.217-1.168 0.108-0.912 0.154-1.956 0.136-3.134v-10.085h3.392v10.085z">
            </path>
            <path fill="#fafafa" style="fill: var(--color1, #fafafa)"
                d="M176.080 7.028c0.633 0 1.23 0.104 1.791 0.313 0.579 0.209 1.095 0.541 1.547 0.997 0.452 0.437 0.823 1.007 1.113 1.709 0.308 0.703 0.507 1.557 0.597 2.564 0.127 1.235 0.090 2.27-0.109 3.105-0.181 0.817-0.407 1.472-0.678 1.966-0.308 0.608-0.678 1.083-1.113 1.424l2.252 7.863h-3.474l-1.656-6.695-0.76 0.142v6.553h-3.419l0.027-19.943h3.881zM175.592 16.886c0.416-0.038 0.76-0.142 1.031-0.313 0.271-0.19 0.498-0.427 0.679-0.712s0.307-0.608 0.38-0.969 0.109-0.731 0.109-1.111c0-0.399-0.036-0.788-0.109-1.168-0.072-0.399-0.19-0.75-0.353-1.054-0.163-0.323-0.389-0.579-0.678-0.769-0.271-0.19-0.624-0.285-1.058-0.285v6.382z">
            </path>
            <path fill="#fafafa" style="fill: var(--color1, #fafafa)"
                d="M180.55 26.972v-19.943h6.378v3.533h-2.877v4.501h2.904v3.704h-3.067v4.501h3.094v3.704h-6.432z"></path>
            <path fill="#fafafa" style="fill: var(--color1, #fafafa)"
                d="M195.864 7.028c0.018 0 0.027 0.19 0.027 0.57 0 0.361 0 0.76 0 1.197 0 0.532-0.009 1.13-0.027 1.795-0.561 0-1.131 0.057-1.71 0.171-0.561 0.095-1.067 0.256-1.52 0.484-0.434 0.209-0.796 0.465-1.086 0.769-0.271 0.304-0.407 0.655-0.407 1.054 0 0.342 0.118 0.636 0.353 0.883 0.253 0.247 0.552 0.494 0.896 0.741 0.362 0.247 0.751 0.522 1.167 0.826 0.434 0.285 0.823 0.627 1.167 1.026 0.362 0.399 0.66 0.883 0.896 1.453 0.253 0.57 0.38 1.263 0.38 2.080 0 1.215-0.217 2.26-0.651 3.134-0.416 0.855-0.995 1.567-1.737 2.137-0.724 0.551-1.574 0.959-2.551 1.225s-2.008 0.399-3.094 0.399v-3.561c0.326 0 0.751-0.057 1.275-0.171s1.031-0.304 1.52-0.57c0.507-0.266 0.941-0.617 1.303-1.054s0.534-0.978 0.516-1.624c0-0.323-0.118-0.598-0.353-0.826-0.235-0.247-0.534-0.484-0.896-0.712-0.344-0.247-0.715-0.503-1.113-0.769-0.398-0.285-0.778-0.627-1.14-1.026-0.344-0.418-0.633-0.912-0.868-1.481-0.217-0.57-0.326-1.273-0.326-2.108 0-0.874 0.235-1.681 0.706-2.422 0.488-0.741 1.113-1.377 1.873-1.909s1.61-0.95 2.551-1.254c0.959-0.304 1.909-0.456 2.85-0.456z">
            </path>
            <path fill="#fafafa" style="fill: var(--color1, #fafafa)" d="M194 3h-92v-2h92v2z"></path>
            <path fill="#fafafa" style="fill: var(--color1, #fafafa)" d="M194 31h-92v-2h92v2z"></path>
        </symbol>
    </defs>
</svg>